<?xml version="1.0" encoding="UTF-8"?><svg id="Layer_1" xmlns="http://www.w3.org/2000/svg" viewBox="0 0 85.04 85.04"><path d="M59.63,3.77l4.8,4.32c.98,.89,1.01,2.42,.06,3.34l-7.79,7.58c-1.66,1.61-4.38,.04-3.82-2.2l3-11.9c.42-1.67,2.47-2.3,3.76-1.14Z" fill="#124b87"/><path d="M32.68,34.04L16.37,13.66c-1.48-1.86-4.4-1.35-5.34,.92L.26,40.78c-.94,2.27,.78,4.68,3.14,4.41l24.82-2.87c.6-3.22,2.2-6.08,4.46-8.28Z" fill="#124b87"/><path d="M45.19,29.76l7.92-24.98c.72-2.27-1.32-4.41-3.73-3.92L21.61,6.45c-2.41,.49-3.46,3.25-1.92,5.06l16.83,19.81c2.03-1.02,4.31-1.63,6.73-1.66,.66,0,1.31,.04,1.95,.11Z" fill="#124b87"/><path d="M28.06,47.01l-24.71,2.13c-2.37,.2-3.57,2.91-2.2,4.95l15.79,23.52c1.37,2.04,4.33,1.95,5.41-.16l10.67-20.81c-2.68-2.45-4.52-5.81-4.97-9.62Z" fill="#124b87"/><path d="M59.71,79.6l-11.03-19.81c-1.56,.56-3.23,.88-4.98,.91-2.44,.04-4.75-.51-6.82-1.48l-11.27,20.47c-1.15,2.08,.44,4.58,2.9,4.58l28.33-.07c2.46,0,4.03-2.51,2.87-4.59Z" fill="#124b87"/><path d="M53.1,47.37l29.15,2.37c2.37,.19,3.58,2.89,2.22,4.94l-15.68,23.59c-1.36,2.05-4.32,1.98-5.41-.13l-13.46-25.96c-1.17-2.25,.67-5.01,3.19-4.8Z" fill="#bf0c13"/></svg>