<?xml version="1.0" encoding="UTF-8"?><svg id="Layer_1" xmlns="http://www.w3.org/2000/svg" viewBox="0 0 240.94 141.73"><rect x="13.45" y="118.92" width="214.04" height="2.83" fill="#124b87"/><g><path d="M127.37,77.54h26.92v8.33h-17.6v5.83h15.91v7.89h-15.91v12.25h-9.33v-34.3Z" fill="#bf0c13"/><path d="M157.89,77.54h9.38v34.3h-9.38v-34.3Z" fill="#bf0c13"/><path d="M7.09,94.79v-.09c0-9.61,7.69-17.15,18.13-17.15,5.91,0,10.1,1.79,13.65,4.81l-5.48,6.46c-2.4-1.98-4.81-3.11-8.13-3.11-4.86,0-8.61,4.01-8.61,9.05v.09c0,5.32,3.8,9.14,9.14,9.14,2.26,0,3.99-.47,5.38-1.37v-4.01h-6.63v-6.69h15.48v14.84c-3.56,2.87-8.51,5.09-14.62,5.09-10.48,0-18.32-7.07-18.32-17.06Z" fill="#124b87"/><path d="M92.88,77.54h-8.99l-12.38,29.65-4.9-7.3c4.18-1.81,6.92-5.29,6.92-10.54v-.1c0-3.38-1.01-6.03-2.98-7.99-2.26-2.35-5.82-3.72-10.96-3.72h-15.91v34.3h9.33v-10.39h4.09l6.78,10.39h15.51l2.4-6.08h12.98l2.45,6.08h10l-14.33-34.3Zm-28.73,12.4c0,2.5-1.83,4.07-5,4.07h-6.15v-8.23h6.11c3.13,0,5.05,1.37,5.05,4.07v.1Zm20.36,8.48l3.8-9.68,3.75,9.68h-7.55Z" fill="#124b87"/><path d="M198.72,94.79v-.09c0-9.37,7.55-16.96,17.61-16.96s17.52,7.5,17.52,16.87v.09c0,9.37-7.55,16.96-17.61,16.96s-17.52-7.5-17.52-16.87Zm25.91,0v-.09c0-4.71-3.4-8.81-8.39-8.81s-8.25,4.01-8.25,8.71v.09c0,4.71,3.4,8.81,8.34,8.81s8.29-4.01,8.29-8.71Z" fill="#bf0c13"/><polygon points="102.95 91.7 114.44 91.7 114.44 85.87 100.52 85.87 97.04 77.54 123.77 77.54 123.77 111.84 114.44 111.84 114.44 99.59 106.25 99.59 102.95 91.7" fill="#124b87"/><path d="M195.41,99.79c-1.9,2.24-3.9,3.71-7.2,3.71-4.62,0-7.87-3.86-7.87-8.81v-.09c0-4.81,3.25-8.72,7.87-8.72,3.15,0,5.31,1.5,7.19,3.84,.79-3.08,2.31-5.85,4.36-8.14-2.76-2.47-6.44-4.04-11.46-4.04-9.99,0-17.39,7.54-17.39,17.15v.09c0,9.85,7.59,17.06,17.01,17.06,5.25,0,8.89-1.64,11.68-4.15-1.97-2.24-3.43-4.93-4.2-7.9Z" fill="#bf0c13"/></g><g><path d="M16.15,129.13h-2.65v-2.15h7.75v2.15h-2.65v6.69h-2.45v-6.69Z" fill="#124b87"/><path d="M22.2,131.95v-4.96h2.49v4.91c0,1.27,.64,1.88,1.63,1.88s1.63-.58,1.63-1.82v-4.97h2.49v4.9c0,2.85-1.63,4.1-4.14,4.1s-4.09-1.27-4.09-4.04Z" fill="#124b87"/><path d="M35.36,126.99h2.59l2.11,3.42,2.11-3.42h2.59v8.83h-2.44v-5.07l-2.26,3.46h-.05l-2.25-3.43v5.05h-2.4v-8.83Z" fill="#124b87"/><path d="M49.37,126.92h2.36l3.76,8.9h-2.62l-.64-1.58h-3.41l-.63,1.58h-2.57l3.76-8.9Zm2.15,5.41l-.98-2.51-1,2.51h1.98Z" fill="#124b87"/><path d="M56.34,126.99h4.18c1.35,0,2.28,.35,2.88,.96,.52,.5,.78,1.19,.78,2.06v.03c0,1.35-.72,2.25-1.82,2.71l2.11,3.08h-2.83l-1.78-2.68h-1.07v2.68h-2.45v-8.83Zm4.06,4.24c.83,0,1.31-.4,1.31-1.05v-.03c0-.69-.5-1.05-1.33-1.05h-1.6v2.12h1.62Z" fill="#124b87"/><path d="M65.1,131.43v-.02c0-2.57,1.98-4.59,4.66-4.59,1.8,0,2.97,.76,3.75,1.84l-1.84,1.43c-.5-.63-1.09-1.03-1.93-1.03-1.24,0-2.11,1.05-2.11,2.33v.03c0,1.32,.87,2.36,2.11,2.36,.92,0,1.46-.43,1.99-1.07l1.84,1.31c-.83,1.15-1.96,1.99-3.91,1.99-2.52,0-4.56-1.93-4.56-4.57Z" fill="#124b87"/><path d="M77.59,126.92h2.36l3.76,8.9h-2.62l-.64-1.58h-3.41l-.63,1.58h-2.57l3.76-8.9Zm2.15,5.41l-.98-2.51-1,2.51h1.98Z" fill="#124b87"/><path d="M91.86,126.99h2.28l3.63,4.67v-4.67h2.42v8.83h-2.15l-3.77-4.85v4.85h-2.42v-8.83Z" fill="#124b87"/><path d="M101.65,131.95v-4.96h2.49v4.91c0,1.27,.64,1.88,1.63,1.88s1.63-.58,1.63-1.82v-4.97h2.49v4.9c0,2.85-1.63,4.1-4.14,4.1s-4.09-1.27-4.09-4.04Z" fill="#124b87"/><path d="M111.32,126.99h7.1v2.08h-4.68v1.34h4.24v1.93h-4.24v1.4h4.75v2.08h-7.17v-8.83Z" fill="#124b87"/><path d="M119.07,134.51l1.36-1.63c.87,.69,1.84,1.06,2.86,1.06,.66,0,1.01-.23,1.01-.61v-.03c0-.37-.29-.57-1.49-.85-1.88-.43-3.33-.96-3.33-2.78v-.03c0-1.64,1.3-2.83,3.42-2.83,1.5,0,2.68,.4,3.63,1.17l-1.22,1.73c-.81-.57-1.69-.87-2.47-.87-.59,0-.88,.25-.88,.57v.03c0,.4,.3,.58,1.53,.86,2.03,.44,3.29,1.1,3.29,2.75v.03c0,1.8-1.43,2.88-3.57,2.88-1.56,0-3.05-.49-4.14-1.46Z" fill="#124b87"/><path d="M129.86,129.13h-2.65v-2.15h7.75v2.15h-2.65v6.69h-2.45v-6.69Z" fill="#124b87"/><path d="M136.03,126.99h4.18c1.35,0,2.28,.35,2.88,.96,.52,.5,.78,1.19,.78,2.06v.03c0,1.35-.72,2.25-1.82,2.71l2.11,3.08h-2.83l-1.78-2.68h-1.07v2.68h-2.45v-8.83Zm4.06,4.24c.83,0,1.31-.4,1.31-1.05v-.03c0-.69-.5-1.05-1.33-1.05h-1.6v2.12h1.62Z" fill="#124b87"/><path d="M148,126.92h2.36l3.76,8.9h-2.62l-.64-1.58h-3.41l-.63,1.58h-2.57l3.76-8.9Zm2.15,5.41l-.98-2.51-1,2.51h1.98Z" fill="#124b87"/><path d="M158.47,126.99h3.79c2.23,0,3.67,1.15,3.67,3.1v.03c0,2.08-1.6,3.18-3.8,3.18h-1.21v2.52h-2.45v-8.83Zm3.61,4.39c.87,0,1.4-.45,1.4-1.15v-.02c0-.76-.53-1.16-1.41-1.16h-1.15v2.33h1.16Z" fill="#124b87"/><path d="M166.95,126.99h4.18c1.35,0,2.28,.35,2.88,.96,.52,.5,.78,1.19,.78,2.06v.03c0,1.35-.72,2.25-1.82,2.71l2.11,3.08h-2.83l-1.78-2.68h-1.07v2.68h-2.45v-8.83Zm4.06,4.24c.83,0,1.31-.4,1.31-1.05v-.03c0-.69-.5-1.05-1.33-1.05h-1.6v2.12h1.62Z" fill="#124b87"/><path d="M176.07,126.99h2.46v8.83h-2.46v-8.83Z" fill="#124b87"/><path d="M179.84,131.43v-.02c0-2.54,2.04-4.59,4.77-4.59s4.74,2.03,4.74,4.57v.03c0,2.54-2.04,4.59-4.77,4.59s-4.74-2.03-4.74-4.57Zm7.02,0v-.02c0-1.27-.92-2.39-2.27-2.39s-2.23,1.09-2.23,2.36v.03c0,1.27,.92,2.38,2.26,2.38s2.25-1.08,2.25-2.36Z" fill="#124b87"/><path d="M190.63,126.99h4.18c1.35,0,2.28,.35,2.88,.96,.52,.5,.78,1.19,.78,2.06v.03c0,1.35-.72,2.25-1.82,2.71l2.11,3.08h-2.83l-1.78-2.68h-1.07v2.68h-2.45v-8.83Zm4.06,4.24c.83,0,1.31-.4,1.31-1.05v-.03c0-.69-.5-1.05-1.33-1.05h-1.6v2.12h1.62Z" fill="#124b87"/><path d="M199.75,126.99h2.46v8.83h-2.46v-8.83Z" fill="#124b87"/><path d="M203.82,126.99h3.41c3.15,0,4.98,1.82,4.98,4.37v.03c0,2.55-1.85,4.44-5.03,4.44h-3.36v-8.83Zm3.45,6.66c1.46,0,2.44-.81,2.44-2.23v-.03c0-1.41-.97-2.23-2.44-2.23h-1v4.49h1Z" fill="#124b87"/><path d="M215.89,126.92h2.36l3.76,8.9h-2.62l-.64-1.58h-3.41l-.63,1.58h-2.57l3.76-8.9Zm2.15,5.41l-.98-2.51-1,2.51h1.98Z" fill="#124b87"/><path d="M222.86,126.99h3.41c3.15,0,4.98,1.82,4.98,4.37v.03c0,2.55-1.85,4.44-5.03,4.44h-3.36v-8.83Zm3.45,6.66c1.46,0,2.44-.81,2.44-2.23v-.03c0-1.41-.97-2.23-2.44-2.23h-1v4.49h1Z" fill="#124b87"/></g><g><path d="M138.32,6.84l3.58,3.23c.74,.66,.76,1.81,.05,2.5l-5.82,5.66c-1.24,1.2-3.27,.03-2.85-1.65l2.24-8.89c.31-1.25,1.85-1.72,2.81-.85Z" fill="#124b87"/><path d="M118.19,29.46l-12.18-15.23c-1.11-1.39-3.29-1.01-3.99,.69l-8.05,19.57c-.7,1.7,.58,3.5,2.35,3.3l18.54-2.15c.45-2.41,1.65-4.55,3.34-6.18Z" fill="#124b87"/><path d="M127.53,26.26l5.92-18.67c.54-1.69-.99-3.29-2.79-2.93l-20.75,4.18c-1.8,.36-2.59,2.43-1.44,3.78l12.58,14.8c1.52-.76,3.22-1.22,5.03-1.24,.49,0,.98,.03,1.45,.08Z" fill="#124b87"/><path d="M114.74,39.15l-18.46,1.59c-1.77,.15-2.66,2.17-1.64,3.7l11.8,17.57c1.02,1.53,3.23,1.46,4.04-.12l7.97-15.55c-2-1.83-3.38-4.34-3.71-7.19Z" fill="#124b87"/><path d="M138.38,63.5l-8.24-14.8c-1.17,.42-2.41,.66-3.72,.68-1.82,.03-3.55-.38-5.09-1.11l-8.42,15.29c-.86,1.56,.33,3.42,2.16,3.42l21.16-.05c1.84,0,3.01-1.88,2.15-3.43Z" fill="#124b87"/><path d="M133.45,39.42l21.78,1.77c1.77,.14,2.68,2.16,1.66,3.69l-11.72,17.63c-1.02,1.53-3.23,1.48-4.04-.1l-10.06-19.39c-.87-1.68,.5-3.74,2.39-3.59Z" fill="#bf0c13"/></g><path d="M86.82,126.55h1.52v9.7h-1.52v-9.7Z" fill="#124b87"/></svg>